<?xml version="1.0" encoding="UTF-8" standalone="no"?>
<!DOCTYPE svg PUBLIC "-//W3C//DTD SVG 1.1//EN" "http://www.w3.org/Graphics/SVG/1.1/DTD/svg11.dtd">
<svg version="1.1" xmlns="http://www.w3.org/2000/svg" xmlns:xlink="http://www.w3.org/1999/xlink" preserveAspectRatio="xMidYMid meet" viewBox="0 0 510 220" width="510" height="220"><defs><path d="" id="e1Uqkjmy60"></path><path d="M421.96 134.78L304.68 163.55L22.05 163.55L100.39 123.69L421.96 134.78Z" id="a1LqdJhwL2"></path><path d="M499.4 141.76C502.32 143 501.79 147.29 498.65 147.78C486.76 149.62 457.03 154.24 409.45 161.62L374.73 132.18C423.77 132.18 454.42 132.18 466.68 132.18C473.41 132.18 480.07 133.54 486.26 136.17C490.93 138.16 494.9 139.85 499.4 141.76Z" id="a7C48N6QVw"></path><path d="M411.49 104.02L456.41 78.28C455.73 106.82 455.3 124.65 455.13 131.79C455.04 135.64 452.9 139.15 449.51 140.99C444.49 143.73 431.91 150.57 411.8 161.52L411.49 104.02Z" id="c1ZcqWV7OO"></path><path d="M409.82 104.11L364.12 78.86C364.28 106.39 364.38 123.59 364.42 130.48C364.45 135 366.97 139.13 370.98 141.21C376.16 143.9 389.11 150.63 409.82 161.39L409.82 104.11Z" id="cepsLWMqO"></path><path d="M455.1 76.61L410.62 102.25L365.17 77.22C387.28 66.49 401.1 59.78 406.63 57.1C408.07 56.4 409.76 56.37 411.23 57.03C417.08 59.64 431.71 66.17 455.1 76.61Z" id="b2QvanfcH2"></path><path d="M421.35 82.55C421.35 85.7 416.24 88.25 409.95 88.25C403.67 88.25 398.56 85.7 398.56 82.55C398.56 79.41 403.67 76.86 409.95 76.86C416.24 76.86 421.35 79.41 421.35 82.55Z" id="d2GTpHXmQu"></path><path d="M398.56 75.32L421.35 75.32L421.35 83.66L398.56 83.66L398.56 75.32Z" id="a6Ips92cf9"></path><path d="M421.35 74.96C421.35 78.1 416.24 80.65 409.95 80.65C403.67 80.65 398.56 78.1 398.56 74.96C398.56 71.81 403.67 69.26 409.95 69.26C416.24 69.26 421.35 71.81 421.35 74.96Z" id="bGopqZVLr"></path><path d="M455.31 76.61L410.82 102.25L365.37 77.22C387.48 66.49 401.3 59.78 406.83 57.1C408.28 56.4 409.96 56.37 411.44 57.03C417.28 59.64 431.91 66.17 455.31 76.61Z" id="baJ6CxZsX"></path><path d="M421.55 82.55C421.55 85.7 416.45 88.25 410.16 88.25C403.87 88.25 398.76 85.7 398.76 82.55C398.76 79.41 403.87 76.86 410.16 76.86C416.45 76.86 421.55 79.41 421.55 82.55Z" id="aAcjZpkBB"></path><path d="M398.76 75.32L421.55 75.32L421.55 83.66L398.76 83.66L398.76 75.32Z" id="e1hNvyp0zJ"></path><path d="M421.55 74.96C421.55 78.1 416.45 80.65 410.16 80.65C403.87 80.65 398.76 78.1 398.76 74.96C398.76 71.81 403.87 69.26 410.16 69.26C416.45 69.26 421.55 71.81 421.55 74.96Z" id="c5gwIR9mh"></path><path d="M90.9 195.26C86.21 191.98 81.54 188.37 76.91 184.46C66.04 175.45 56.09 169.08 47.09 165.34C41.88 163.15 36.28 162.07 30.3 162.07C30.08 162.07 28.3 162.07 28.08 162.07C27.7 162.07 26.92 162.13 25.77 162.26C28.71 148.57 52.25 39.02 55.19 25.33C46.32 28.99 39.5 34.45 34.74 41.68C29.97 48.92 27.6 57.81 27.6 68.37C27.6 72.42 28.04 75.74 28.95 78.31C29.2 79.14 29.53 79.89 29.92 80.52C30.17 80.97 30.3 81.43 30.3 81.87C23.16 81.87 17.95 80.43 14.66 77.53C11 74.44 9.16 69.49 9.16 62.67C9.16 58.36 10.1 54.1 11.97 49.89C13.82 45.68 16.46 41.6 19.87 37.68C23.16 33.89 27.03 30.36 31.51 27.11C35.98 23.87 40.78 21.04 45.94 18.67C56.87 13.72 67.74 11.24 78.55 11.24C80.93 11.24 83.57 11.4 86.46 11.72C83.42 25.91 59.11 139.39 56.07 153.57C59.22 154.29 62.42 155.34 65.66 156.76C68.91 158.17 72.63 160.01 76.81 162.26C77.89 162.84 86.54 167.47 87.62 168.05C95.98 172.62 103.55 175.77 110.29 177.51C114.15 178.54 118.21 179.05 122.45 179.05C128.44 179.05 133.97 177.99 139.05 175.86C137.9 185.51 135.54 193.07 132.01 198.54C130.27 201.24 128.26 203.32 125.98 204.77C123.69 206.21 121.2 206.93 118.5 206.93C114.12 206.93 109.71 205.92 105.28 203.9C100.84 201.87 96.05 198.99 90.9 195.26Z" id="c8c97IZi0"></path><path d="M132.82 53.62L133.4 53.64L133.98 53.66L134.54 53.69L135.1 53.73L135.65 53.78L136.19 53.83L136.73 53.9L137.25 53.96L137.77 54.04L138.28 54.12L138.78 54.21L139.27 54.31L139.75 54.42L140.23 54.53L140.7 54.65L141.15 54.77L141.61 54.91L142.05 55.05L142.48 55.2L142.91 55.35L143.33 55.51L143.74 55.68L144.14 55.86L144.53 56.05L144.92 56.24L145.3 56.44L145.67 56.64L146.03 56.86L146.38 57.08L146.73 57.31L147.06 57.54L147.39 57.78L147.71 58.03L148.02 58.29L148.33 58.55L148.62 58.83L148.91 59.11L149.19 59.39L149.4 59.62L149.6 59.86L149.8 60.1L150 60.34L150.19 60.59L150.37 60.84L150.55 61.1L150.72 61.37L150.89 61.64L151.05 61.91L151.21 62.19L151.36 62.48L151.5 62.77L151.64 63.06L151.78 63.36L151.91 63.67L152.03 63.98L152.15 64.3L152.27 64.62L152.38 64.94L152.48 65.27L152.58 65.61L152.67 65.95L152.76 66.29L152.84 66.64L152.92 67L152.99 67.36L153.06 67.73L153.12 68.1L153.17 68.47L153.22 68.86L153.27 69.24L153.31 69.63L153.34 70.03L153.37 70.43L153.39 70.84L153.41 71.25L153.43 71.67L153.43 72.09L153.44 72.51L153.43 72.93L153.43 73.35L153.42 73.77L153.4 74.18L153.38 74.6L153.35 75.01L153.32 75.42L153.29 75.83L153.25 76.24L153.21 76.65L153.16 77.06L153.11 77.46L153.05 77.87L152.99 78.27L152.92 78.67L152.85 79.07L152.77 79.47L152.69 79.87L152.61 80.26L152.52 80.66L152.43 81.05L152.33 81.44L152.23 81.84L152.12 82.23L152.01 82.62L151.89 83L151.77 83.39L151.64 83.77L151.51 84.16L151.38 84.54L151.24 84.92L151.09 85.3L150.94 85.68L150.79 86.06L150.63 86.44L150.47 86.81L150.3 87.18L150.13 87.56L149.95 87.93L149.77 88.3L149.59 88.67L149.4 89.03L149.21 89.39L149.01 89.76L148.81 90.11L148.61 90.47L148.4 90.83L148.19 91.18L147.98 91.53L147.76 91.88L147.54 92.23L147.32 92.57L147.09 92.91L146.86 93.25L146.62 93.59L146.39 93.93L146.14 94.26L145.9 94.6L145.65 94.93L145.4 95.25L145.14 95.58L144.89 95.9L144.62 96.22L144.36 96.54L144.09 96.86L143.82 97.18L143.54 97.49L143.26 97.8L142.98 98.11L142.69 98.42L142.4 98.72L142.11 99.03L141.81 99.33L141.51 99.63L141.21 99.92L140.9 100.22L140.59 100.51L140.27 100.8L139.96 101.09L139.64 101.37L139.31 101.65L138.98 101.93L138.66 102.2L138.32 102.47L137.99 102.74L137.66 103L137.32 103.26L136.98 103.52L136.64 103.78L136.29 104.03L135.95 104.28L135.6 104.53L135.25 104.77L134.9 105.01L134.54 105.25L134.18 105.49L133.83 105.72L133.46 105.95L133.1 106.18L132.74 106.4L132.37 106.62L132 106.84L131.63 107.06L131.25 107.27L130.87 107.48L130.5 107.69L130.12 107.89L129.73 108.1L129.35 108.3L128.96 108.49L128.57 108.69L128.18 108.88L127.78 109.06L127.39 109.25L126.99 109.43L126.59 109.61L126.19 109.79L125.78 109.96L125.38 110.13L124.97 110.3L124.56 110.47L124.15 110.63L123.73 110.78L123.32 110.94L122.91 111.09L122.49 111.23L122.08 111.38L121.66 111.52L121.25 111.66L120.83 111.79L120.41 111.92L119.99 112.05L119.58 112.17L119.16 112.29L118.73 112.41L118.31 112.52L117.89 112.63L117.47 112.73L117.04 112.84L116.62 112.94L116.19 113.03L115.77 113.13L115.34 113.21L114.91 113.3L114.49 113.38L114.06 113.46L113.63 113.54L113.2 113.61L112.77 113.68L112.34 113.74L111.9 113.8L111.47 113.86L111.04 113.92L110.6 113.97L110.17 114.02L109.73 114.06L109.3 114.1L108.86 114.14L108.42 114.17L107.98 114.2L107.96 114.45L107.94 114.7L107.91 114.94L107.89 115.18L107.87 115.42L107.85 115.66L107.83 115.89L107.81 116.12L107.79 116.35L107.77 116.58L107.75 116.8L107.74 117.02L107.72 117.24L107.7 117.45L107.69 117.67L107.67 117.88L107.66 118.08L107.65 118.29L107.63 118.49L107.62 118.69L107.61 118.89L107.6 119.08L107.59 119.27L107.58 119.46L107.57 119.65L107.56 119.83L107.55 120.01L107.54 120.19L107.54 120.36L107.53 120.54L107.53 120.71L107.52 120.88L107.52 121.04L107.51 121.2L107.51 121.36L107.51 121.52L107.5 121.67L107.5 121.82L107.5 121.97L107.5 122.12L107.5 122.6L107.51 123.07L107.52 123.53L107.54 123.99L107.56 124.44L107.58 124.88L107.61 125.31L107.65 125.74L107.69 126.16L107.73 126.57L107.78 126.97L107.83 127.37L107.89 127.76L107.95 128.14L108.02 128.51L108.09 128.88L108.16 129.24L108.24 129.59L108.33 129.94L108.42 130.27L108.51 130.6L108.61 130.92L108.71 131.24L108.82 131.54L108.93 131.84L109.05 132.14L109.17 132.42L109.3 132.7L109.43 132.97L109.56 133.23L109.7 133.48L109.85 133.73L110 133.97L110.15 134.2L110.31 134.43L110.47 134.64L110.64 134.85L110.81 135.05L110.99 135.25L111.17 135.44L111.33 135.6L111.5 135.76L111.67 135.91L111.85 136.06L112.03 136.21L112.22 136.35L112.41 136.48L112.61 136.62L112.82 136.75L113.03 136.87L113.24 136.99L113.46 137.11L113.69 137.22L113.92 137.33L114.15 137.44L114.4 137.54L114.64 137.63L114.9 137.73L115.15 137.81L115.42 137.9L115.68 137.98L115.96 138.05L116.24 138.13L116.52 138.19L116.81 138.26L117.1 138.32L117.4 138.37L117.71 138.42L118.02 138.47L118.34 138.51L118.66 138.55L118.98 138.59L119.32 138.62L119.65 138.64L120 138.67L120.34 138.68L120.7 138.7L121.06 138.71L121.42 138.71L121.79 138.72L122.32 138.71L122.86 138.7L123.39 138.68L123.91 138.66L124.44 138.63L124.96 138.59L125.48 138.54L126 138.49L126.51 138.42L127.03 138.35L127.54 138.28L128.05 138.2L128.55 138.11L129.06 138.01L129.56 137.9L130.06 137.79L130.56 137.67L131.05 137.54L131.55 137.41L132.04 137.27L132.53 137.12L133.01 136.96L133.5 136.8L133.98 136.63L134.46 136.45L134.93 136.27L135.41 136.08L135.88 135.88L136.35 135.67L136.82 135.46L137.28 135.24L137.75 135.01L138.21 134.78L138.67 134.53L139.12 134.28L139.58 134.03L140.03 133.76L140.48 133.49L140.92 133.21L141.37 132.93L141.56 132.81L141.75 132.68L141.93 132.56L142.12 132.44L142.31 132.31L142.49 132.18L142.68 132.06L142.87 131.93L143.05 131.8L143.24 131.66L143.42 131.53L143.61 131.4L143.79 131.26L143.97 131.13L144.16 130.99L144.34 130.85L144.52 130.71L144.7 130.57L144.88 130.43L145.07 130.29L145.25 130.14L145.43 130L145.61 129.85L145.79 129.7L145.97 129.55L146.15 129.4L146.32 129.25L146.5 129.1L146.68 128.95L146.86 128.79L147.04 128.64L147.21 128.48L147.39 128.32L147.57 128.16L147.74 128L147.92 127.84L148.09 127.68L148.27 127.52L148.44 127.35L148.62 127.19L148.79 127.02L148.97 126.85L149.14 126.68L149.32 126.5L149.5 126.33L149.68 126.15L149.87 125.97L150.05 125.78L150.24 125.6L150.42 125.41L150.61 125.22L150.8 125.03L150.99 124.83L151.19 124.64L151.38 124.44L151.58 124.24L151.77 124.03L151.97 123.83L152.17 123.62L152.37 123.41L152.58 123.2L152.78 122.99L152.99 122.77L153.2 122.55L153.4 122.33L153.61 122.11L153.83 121.88L154.04 121.65L154.26 121.42L154.47 121.19L154.69 120.96L154.91 120.72L155.13 120.48L155.35 120.24L155.58 120L155.8 119.75L156.03 119.5L156.26 119.25L156.49 119L156.72 118.75L163.47 118.75L163 119.53L162.53 120.31L162.05 121.08L161.57 121.85L161.09 122.6L160.6 123.35L160.11 124.09L159.61 124.82L159.12 125.54L158.61 126.25L158.11 126.96L157.6 127.66L157.09 128.35L156.57 129.03L156.06 129.71L155.53 130.37L155.01 131.03L154.48 131.68L153.95 132.32L153.41 132.95L152.87 133.58L152.33 134.2L151.78 134.81L151.23 135.41L150.68 136L150.12 136.59L149.56 137.16L149 137.73L148.43 138.29L147.86 138.85L147.28 139.39L146.71 139.93L146.12 140.46L145.54 140.98L144.95 141.49L144.36 141.99L143.76 142.49L143.16 142.98L142.56 143.46L141.96 143.93L141.21 144.49L140.45 145.04L139.69 145.57L138.93 146.09L138.17 146.6L137.4 147.09L136.63 147.57L135.85 148.03L135.07 148.48L134.29 148.91L133.51 149.33L132.72 149.74L131.92 150.13L131.13 150.5L130.33 150.87L129.52 151.22L128.71 151.55L127.9 151.87L127.09 152.17L126.27 152.47L125.45 152.74L124.62 153.01L123.79 153.26L122.96 153.49L122.13 153.71L121.29 153.92L120.44 154.11L119.6 154.29L118.74 154.45L117.89 154.6L117.03 154.73L116.17 154.85L115.31 154.96L114.44 155.05L113.56 155.13L112.69 155.19L111.81 155.24L110.93 155.28L110.04 155.3L109.15 155.31L108.42 155.3L107.71 155.29L107 155.27L106.3 155.23L105.61 155.19L104.93 155.14L104.25 155.08L103.59 155.01L102.93 154.94L102.28 154.85L101.64 154.75L101 154.65L100.38 154.53L99.76 154.41L99.15 154.28L98.55 154.14L97.96 153.98L97.38 153.82L96.81 153.65L96.24 153.48L95.68 153.29L95.13 153.09L94.59 152.89L94.06 152.67L93.53 152.45L93.02 152.21L92.51 151.97L92.01 151.72L91.52 151.46L91.03 151.19L90.56 150.91L90.09 150.62L89.63 150.32L89.18 150.01L88.74 149.7L88.31 149.37L87.88 149.04L87.47 148.69L87.06 148.34L86.66 147.97L86.25 147.58L85.84 147.17L85.45 146.76L85.07 146.33L84.69 145.89L84.33 145.44L83.98 144.98L83.64 144.51L83.31 144.03L82.99 143.54L82.68 143.04L82.38 142.53L82.09 142.01L81.81 141.48L81.54 140.94L81.29 140.38L81.04 139.82L80.8 139.24L80.58 138.66L80.36 138.06L80.16 137.46L79.96 136.84L79.78 136.22L79.61 135.58L79.44 134.93L79.29 134.27L79.15 133.6L79.02 132.92L78.9 132.23L78.79 131.53L78.69 130.82L78.6 130.1L78.52 129.37L78.45 128.63L78.4 127.87L78.35 127.11L78.31 126.34L78.28 125.55L78.27 124.76L78.26 123.95L78.26 123.65L78.27 123.34L78.27 123.03L78.28 122.72L78.28 122.41L78.29 122.1L78.3 121.78L78.31 121.47L78.33 121.15L78.34 120.83L78.36 120.51L78.37 120.19L78.39 119.86L78.41 119.53L78.43 119.21L78.46 118.88L78.48 118.54L78.51 118.21L78.54 117.87L78.57 117.54L78.6 117.2L78.63 116.86L78.66 116.52L78.7 116.17L78.74 115.83L78.78 115.48L78.82 115.13L78.86 114.78L78.9 114.43L78.94 114.07L78.99 113.72L79.04 113.36L79.09 113L79.14 112.64L79.19 112.28L79.24 111.91L79.3 111.55L79.35 111.18L79.41 110.81L79.47 110.44L79.53 110.07L79.6 109.7L79.66 109.32L79.73 108.95L79.79 108.58L79.86 108.21L79.93 107.84L80 107.47L80.08 107.1L80.15 106.72L80.23 106.35L80.3 105.98L80.38 105.61L80.46 105.24L80.55 104.87L80.63 104.5L80.72 104.12L80.8 103.75L80.89 103.38L80.98 103.01L81.07 102.64L81.16 102.27L81.26 101.9L81.35 101.52L81.45 101.15L81.55 100.78L81.65 100.41L81.75 100.04L81.85 99.67L81.96 99.29L82.07 98.92L82.17 98.55L82.28 98.18L82.39 97.81L82.51 97.44L82.62 97.07L82.74 96.69L82.85 96.32L82.97 95.95L83.09 95.58L83.23 95.16L83.36 94.75L83.5 94.34L83.64 93.93L83.79 93.52L83.93 93.11L84.08 92.7L84.23 92.29L84.38 91.89L84.53 91.48L84.68 91.08L84.84 90.68L85 90.28L85.16 89.88L85.32 89.48L85.49 89.08L85.65 88.68L85.82 88.29L85.99 87.89L86.16 87.5L86.33 87.11L86.51 86.72L86.69 86.32L86.87 85.94L87.05 85.55L87.23 85.16L87.42 84.77L87.6 84.39L87.79 84.01L87.98 83.62L88.17 83.24L88.37 82.86L88.57 82.48L88.76 82.1L88.96 81.72L89.17 81.35L89.37 80.97L89.58 80.6L89.78 80.23L89.99 79.85L90.2 79.48L90.42 79.12L90.63 78.75L90.84 78.39L91.06 78.02L91.28 77.66L91.5 77.31L91.73 76.95L91.95 76.6L92.18 76.25L92.41 75.9L92.64 75.55L92.87 75.21L93.1 74.86L93.34 74.52L93.57 74.19L93.81 73.85L94.05 73.52L94.29 73.19L94.54 72.86L94.78 72.53L95.03 72.2L95.28 71.88L95.53 71.56L95.79 71.24L96.04 70.93L96.3 70.61L96.55 70.3L96.81 69.99L97.08 69.68L97.34 69.38L97.6 69.07L97.87 68.77L98.14 68.47L98.41 68.18L98.68 67.88L98.96 67.59L99.23 67.3L99.51 67.01L99.79 66.72L100.44 66.08L101.1 65.44L101.76 64.83L102.43 64.23L103.11 63.65L103.8 63.08L104.5 62.53L105.2 62L105.91 61.48L106.63 60.98L107.35 60.5L108.08 60.03L108.82 59.58L109.57 59.15L110.33 58.73L111.09 58.33L111.86 57.94L112.63 57.57L113.42 57.22L114.21 56.88L115.01 56.56L115.82 56.26L116.63 55.97L117.45 55.7L118.28 55.45L119.12 55.21L119.97 54.99L120.82 54.78L121.68 54.59L122.55 54.42L123.42 54.27L124.3 54.13L125.19 54L126.09 53.9L126.99 53.81L127.91 53.73L128.83 53.68L129.75 53.64L130.69 53.61L131.63 53.6L132.23 53.61L132.82 53.62ZM132.59 64.05L132.25 64.09L131.91 64.15L131.57 64.22L131.23 64.31L130.89 64.41L130.55 64.53L130.21 64.66L129.86 64.81L129.52 64.98L129.18 65.16L128.84 65.35L128.49 65.57L128.15 65.8L127.8 66.04L127.46 66.3L127.12 66.58L126.77 66.87L126.43 67.18L126.08 67.5L125.74 67.84L125.4 68.19L125.05 68.55L124.71 68.92L124.37 69.3L124.03 69.7L123.7 70.1L123.36 70.52L123.02 70.95L122.69 71.4L122.36 71.85L122.02 72.32L121.69 72.8L121.36 73.29L121.03 73.79L120.71 74.3L120.38 74.83L120.05 75.37L119.73 75.92L119.4 76.48L119.08 77.05L118.79 77.6L118.5 78.15L118.21 78.71L117.93 79.28L117.65 79.85L117.37 80.43L117.09 81.02L116.82 81.62L116.54 82.22L116.28 82.83L116.01 83.44L115.75 84.07L115.49 84.7L115.23 85.33L114.97 85.98L114.72 86.63L114.47 87.28L114.22 87.95L113.97 88.62L113.73 89.3L113.49 89.99L113.25 90.68L113.02 91.37L112.79 92.06L112.57 92.75L112.35 93.45L112.14 94.14L111.93 94.84L111.73 95.54L111.53 96.24L111.34 96.94L111.15 97.65L110.97 98.35L110.79 99.05L110.61 99.76L110.44 100.47L110.28 101.18L110.12 101.89L109.97 102.6L109.82 103.32L109.67 104.03L109.53 104.75L110.05 104.71L110.58 104.65L111.1 104.59L111.62 104.51L112.13 104.43L112.65 104.33L113.17 104.22L113.68 104.1L114.19 103.97L114.7 103.83L115.21 103.68L115.72 103.52L116.23 103.35L116.74 103.16L117.24 102.97L117.74 102.76L118.25 102.54L118.75 102.31L119.25 102.07L119.75 101.82L120.24 101.56L120.74 101.29L121.22 101.01L121.71 100.73L122.18 100.43L122.66 100.13L123.12 99.82L123.59 99.5L124.04 99.18L124.5 98.84L124.94 98.5L125.38 98.15L125.82 97.8L126.25 97.43L126.68 97.06L127.1 96.68L127.51 96.29L127.92 95.89L128.33 95.49L128.73 95.08L129.12 94.66L129.51 94.23L129.89 93.78L130.27 93.34L130.63 92.88L130.99 92.42L131.34 91.96L131.68 91.49L132.02 91.02L132.34 90.54L132.66 90.06L132.97 89.57L133.28 89.07L133.57 88.57L133.86 88.07L134.14 87.56L134.41 87.05L134.67 86.53L134.93 86L135.18 85.47L135.42 84.94L135.65 84.4L135.88 83.85L136.09 83.31L136.3 82.76L136.49 82.21L136.67 81.66L136.85 81.11L137.01 80.55L137.16 80L137.31 79.45L137.44 78.89L137.56 78.33L137.67 77.77L137.77 77.21L137.86 76.65L137.94 76.09L138.01 75.53L138.06 74.97L138.11 74.4L138.15 73.83L138.18 73.27L138.19 72.7L138.2 72.13L138.19 71.75L138.19 71.39L138.17 71.04L138.16 70.69L138.13 70.35L138.1 70.02L138.07 69.7L138.03 69.39L137.99 69.09L137.94 68.79L137.89 68.5L137.83 68.23L137.77 67.96L137.7 67.69L137.63 67.44L137.55 67.2L137.47 66.96L137.38 66.73L137.28 66.51L137.19 66.3L137.08 66.1L136.97 65.91L136.86 65.72L136.73 65.55L136.6 65.38L136.47 65.23L136.32 65.08L136.17 64.95L136.01 64.82L135.84 64.7L135.67 64.59L135.48 64.49L135.3 64.4L135.1 64.32L134.9 64.25L134.69 64.19L134.47 64.14L134.24 64.1L134.01 64.07L133.77 64.04L133.53 64.03L133.27 64.02L132.93 64.03L132.59 64.05Z" id="b75J7Z12T"></path><path d="M207.78 57.75L208.17 57.76L208.55 57.77L208.93 57.79L209.3 57.81L209.67 57.83L210.03 57.86L210.39 57.89L210.74 57.92L211.09 57.96L211.44 58L211.77 58.04L212.11 58.09L212.43 58.14L212.76 58.19L213.07 58.25L213.39 58.31L213.69 58.37L214 58.44L214.29 58.51L214.59 58.58L214.87 58.66L215.16 58.74L215.44 58.83L215.71 58.91L215.98 59.01L216.24 59.1L216.5 59.2L216.75 59.3L217 59.4L217.24 59.51L217.48 59.63L217.71 59.74L217.94 59.86L218.16 59.98L218.38 60.11L218.59 60.24L218.8 60.37L219 60.5L219.2 60.64L219.39 60.78L219.58 60.93L219.76 61.07L219.94 61.22L220.11 61.37L220.28 61.52L220.44 61.67L220.6 61.83L220.75 61.99L220.9 62.15L221.04 62.31L221.18 62.48L221.31 62.65L221.44 62.82L221.56 62.99L221.68 63.16L221.79 63.34L221.9 63.52L222 63.7L222.1 63.88L222.2 64.07L222.28 64.25L222.37 64.44L222.44 64.64L222.52 64.83L222.58 65.03L222.65 65.23L222.7 65.43L222.76 65.63L222.8 65.83L222.85 66.04L222.88 66.25L222.92 66.46L222.94 66.68L222.97 66.9L222.98 67.11L223 67.34L223 67.56L223.01 67.78L223.01 68.94L225.14 58.71L253.6 58.71L234.01 150.39L234.48 150.23L234.94 150.07L235.4 149.91L235.85 149.74L236.29 149.57L236.74 149.39L237.17 149.21L237.61 149.03L238.03 148.84L238.46 148.65L238.88 148.46L239.29 148.26L239.7 148.06L240.1 147.85L240.5 147.64L240.9 147.42L241.29 147.21L241.67 146.98L242.05 146.76L242.43 146.53L242.8 146.3L243.17 146.06L243.53 145.82L243.89 145.57L244.24 145.32L244.59 145.07L244.93 144.81L245.27 144.55L245.6 144.29L245.93 144.02L246.26 143.75L246.58 143.47L246.89 143.19L247.2 142.91L247.51 142.62L247.81 142.33L248.1 142.04L248.4 141.74L248.68 141.43L248.96 141.13L249.27 140.79L249.57 140.45L249.86 140.09L250.16 139.74L250.45 139.37L250.74 139L251.02 138.62L251.31 138.23L251.59 137.84L251.87 137.44L252.14 137.03L252.41 136.62L252.68 136.2L252.95 135.77L253.21 135.33L253.47 134.89L253.73 134.44L253.99 133.98L254.24 133.52L254.49 133.04L254.74 132.57L254.98 132.08L255.23 131.59L255.46 131.09L255.7 130.58L255.93 130.07L256.16 129.55L256.39 129.02L256.62 128.48L256.84 127.94L257.06 127.39L257.28 126.83L257.49 126.27L257.7 125.7L257.91 125.12L258.11 124.53L258.32 123.94L258.52 123.34L258.71 122.73L258.91 122.12L267.2 122.12L266.93 122.99L266.66 123.85L266.38 124.71L266.09 125.55L265.79 126.38L265.49 127.2L265.19 128.02L264.87 128.82L264.55 129.61L264.22 130.4L263.89 131.17L263.55 131.93L263.2 132.68L262.85 133.43L262.49 134.16L262.13 134.88L261.75 135.59L261.37 136.3L260.99 136.99L260.6 137.67L260.2 138.34L259.79 139.01L259.38 139.66L258.96 140.3L258.54 140.94L258.1 141.56L257.67 142.17L257.22 142.77L256.77 143.37L256.31 143.95L255.85 144.52L255.38 145.09L254.9 145.64L254.42 146.18L253.93 146.72L253.43 147.24L252.93 147.75L252.42 148.26L251.9 148.75L251.38 149.23L250.99 149.58L250.6 149.92L250.2 150.25L249.8 150.58L249.39 150.91L248.98 151.23L248.56 151.54L248.14 151.85L247.72 152.15L247.29 152.45L246.85 152.75L246.41 153.04L245.97 153.32L245.52 153.6L245.07 153.87L244.61 154.14L244.15 154.41L243.69 154.66L243.21 154.92L242.74 155.17L242.26 155.41L241.78 155.65L241.29 155.88L240.79 156.11L240.29 156.33L239.79 156.55L239.28 156.76L238.77 156.97L238.26 157.17L237.73 157.37L237.21 157.56L236.68 157.75L236.14 157.93L235.6 158.11L235.06 158.28L234.51 158.45L233.96 158.61L233.4 158.77L232.84 158.92L232.27 159.07L229.28 173.36L229.09 174.3L228.89 175.22L228.68 176.14L228.46 177.04L228.22 177.92L227.98 178.8L227.73 179.66L227.48 180.51L227.21 181.34L226.93 182.16L226.64 182.97L226.35 183.77L226.04 184.55L225.73 185.32L225.4 186.08L225.07 186.82L224.72 187.55L224.37 188.27L224.01 188.97L223.64 189.66L223.26 190.34L222.87 191.01L222.47 191.66L222.06 192.3L221.64 192.93L221.21 193.54L220.77 194.14L220.33 194.73L219.87 195.3L219.4 195.86L218.93 196.41L218.45 196.95L217.95 197.47L217.45 197.98L216.94 198.48L216.42 198.96L215.88 199.43L215.34 199.89L214.79 200.33L214.23 200.76L213.82 201.07L213.4 201.36L212.98 201.65L212.55 201.93L212.12 202.21L211.68 202.47L211.23 202.73L210.78 202.98L210.33 203.23L209.87 203.46L209.4 203.69L208.93 203.91L208.46 204.12L207.98 204.32L207.49 204.52L207 204.71L206.51 204.89L206.01 205.07L205.5 205.23L204.99 205.39L204.47 205.54L203.95 205.68L203.42 205.82L202.89 205.95L202.36 206.07L201.81 206.18L201.27 206.28L200.71 206.38L200.15 206.47L199.59 206.55L199.02 206.62L198.45 206.69L197.87 206.75L197.29 206.8L196.7 206.84L196.1 206.87L195.5 206.9L194.9 206.92L194.29 206.93L193.67 206.94L193.44 206.93L193.21 206.93L192.98 206.93L192.75 206.92L192.52 206.92L192.3 206.91L192.07 206.9L191.84 206.89L191.62 206.87L191.4 206.86L191.17 206.84L190.95 206.83L190.73 206.81L190.51 206.79L190.29 206.76L190.07 206.74L189.85 206.72L189.63 206.69L189.41 206.66L189.2 206.63L188.98 206.6L188.77 206.57L188.55 206.54L188.34 206.5L188.13 206.46L187.92 206.42L187.7 206.38L187.49 206.34L187.29 206.3L187.08 206.26L186.87 206.21L186.66 206.16L186.46 206.11L186.25 206.06L186.05 206.01L185.84 205.96L185.64 205.9L185.44 205.85L185.24 205.79L185.04 205.73L184.84 205.67L184.64 205.61L184.44 205.54L184.25 205.48L184.05 205.41L183.86 205.34L183.67 205.27L183.48 205.2L183.29 205.13L183.1 205.05L182.92 204.98L182.73 204.9L182.55 204.82L182.37 204.74L182.19 204.66L182.01 204.57L181.83 204.49L181.66 204.4L181.48 204.31L181.31 204.22L181.14 204.13L180.97 204.04L180.8 203.94L180.63 203.85L180.46 203.75L180.3 203.65L180.14 203.55L179.97 203.45L179.81 203.35L179.65 203.24L179.5 203.14L179.34 203.03L179.18 202.92L179.03 202.81L178.88 202.7L178.73 202.58L178.58 202.47L178.43 202.35L178.28 202.23L178.14 202.11L177.98 201.99L177.83 201.87L177.68 201.74L177.53 201.62L177.39 201.49L177.24 201.36L177.1 201.23L176.95 201.1L176.81 200.97L176.68 200.83L176.54 200.69L176.4 200.56L176.27 200.42L176.14 200.28L176.01 200.13L175.88 199.99L175.75 199.84L175.63 199.7L175.51 199.55L175.38 199.4L175.26 199.25L175.15 199.1L175.03 198.94L174.92 198.79L174.8 198.63L174.69 198.47L174.58 198.31L174.47 198.15L174.37 197.98L174.26 197.82L174.16 197.65L174.06 197.48L173.96 197.31L173.86 197.14L173.76 196.97L173.67 196.8L173.58 196.62L173.49 196.44L173.4 196.27L173.31 196.09L173.22 195.9L173.14 195.72L173.06 195.54L172.98 195.35L172.9 195.16L172.83 194.97L172.75 194.78L172.68 194.59L172.61 194.4L172.55 194.2L172.48 194.01L172.42 193.81L172.36 193.61L172.3 193.41L172.25 193.21L172.2 193.01L172.14 192.81L172.1 192.6L172.05 192.39L172 192.19L171.96 191.98L171.92 191.77L171.88 191.55L171.85 191.34L171.81 191.13L171.78 190.91L171.75 190.69L171.73 190.47L171.7 190.25L171.68 190.03L171.66 189.81L171.64 189.58L171.62 189.36L171.61 189.13L171.6 188.9L171.59 188.67L171.58 188.44L171.57 188.2L171.57 187.97L171.57 187.73L171.58 187.18L171.6 186.62L171.63 186.07L171.67 185.53L171.73 184.98L171.81 184.45L171.89 183.91L171.99 183.38L172.1 182.86L172.23 182.34L172.36 181.82L172.52 181.3L172.68 180.79L172.86 180.29L173.05 179.79L173.25 179.29L173.47 178.79L173.7 178.3L173.94 177.82L174.2 177.33L174.47 176.86L174.75 176.38L175.05 175.91L175.36 175.45L175.68 174.98L176.01 174.53L176.36 174.07L176.72 173.62L177.1 173.18L177.49 172.73L177.89 172.3L178.3 171.86L178.73 171.43L179.17 171.01L179.63 170.58L180.09 170.17L180.57 169.75L181.07 169.34L181.57 168.94L182.09 168.53L182.49 168.24L182.9 167.95L183.31 167.66L183.73 167.37L184.16 167.08L184.6 166.8L185.04 166.52L185.49 166.24L185.95 165.96L186.41 165.68L186.89 165.41L187.37 165.14L187.86 164.87L188.35 164.6L188.85 164.33L189.36 164.07L189.88 163.81L190.4 163.55L190.94 163.29L191.47 163.03L192.02 162.78L192.57 162.52L193.14 162.27L193.7 162.02L194.28 161.78L194.86 161.53L195.45 161.29L196.05 161.05L196.66 160.81L197.27 160.57L197.89 160.33L198.52 160.1L199.15 159.87L199.8 159.64L200.45 159.41L201.1 159.19L201.77 158.96L202.44 158.74L203.12 158.52L203.81 158.3L206.22 147.88L205.71 148.41L205.19 148.93L204.68 149.44L204.15 149.93L203.63 150.41L203.1 150.88L202.56 151.33L202.02 151.77L201.48 152.2L200.93 152.61L200.38 153.01L199.82 153.39L199.26 153.76L198.7 154.12L198.13 154.46L197.55 154.8L196.97 155.11L196.39 155.42L195.81 155.71L195.21 155.98L194.62 156.25L194.02 156.5L193.41 156.73L192.81 156.95L192.19 157.16L191.58 157.36L190.95 157.54L190.33 157.71L189.7 157.87L189.06 158.01L188.42 158.14L187.78 158.25L187.13 158.35L186.48 158.44L185.82 158.51L185.16 158.57L184.5 158.62L183.83 158.65L183.15 158.67L182.48 158.68L181.91 158.68L181.36 158.66L180.81 158.64L180.26 158.61L179.72 158.57L179.19 158.52L178.66 158.47L178.13 158.4L177.62 158.33L177.1 158.24L176.6 158.15L176.09 158.05L175.6 157.94L175.11 157.82L174.62 157.69L174.14 157.56L173.66 157.41L173.19 157.26L172.73 157.1L172.27 156.92L171.82 156.74L171.37 156.55L170.93 156.36L170.49 156.15L170.06 155.93L169.63 155.71L169.21 155.48L168.8 155.24L168.39 154.98L167.98 154.72L167.59 154.46L167.19 154.18L166.8 153.89L166.42 153.6L166.04 153.29L165.67 152.98L165.31 152.66L164.94 152.33L164.59 151.99L164.24 151.64L163.84 151.22L163.45 150.8L163.07 150.36L162.7 149.9L162.34 149.44L161.99 148.97L161.65 148.49L161.32 148L161 147.5L160.69 146.99L160.4 146.47L160.11 145.94L159.83 145.4L159.56 144.85L159.3 144.28L159.05 143.71L158.82 143.13L158.59 142.54L158.37 141.93L158.16 141.32L157.97 140.7L157.78 140.07L157.6 139.42L157.43 138.77L157.28 138.11L157.13 137.43L156.99 136.75L156.87 136.06L156.75 135.35L156.64 134.64L156.55 133.91L156.46 133.18L156.39 132.43L156.32 131.68L156.27 130.91L156.22 130.14L156.18 129.35L156.16 128.56L156.14 127.75L156.14 126.94L156.14 126.59L156.14 126.24L156.15 125.89L156.15 125.54L156.16 125.19L156.17 124.84L156.18 124.48L156.19 124.13L156.21 123.77L156.23 123.42L156.24 123.06L156.26 122.7L156.28 122.34L156.31 121.98L156.33 121.62L156.36 121.26L156.39 120.9L156.42 120.53L156.45 120.17L156.48 119.8L156.52 119.43L156.56 119.07L156.6 118.7L156.64 118.33L156.68 117.96L156.72 117.59L156.77 117.21L156.82 116.84L156.87 116.46L156.92 116.09L156.97 115.71L157.03 115.33L157.08 114.95L157.14 114.57L157.2 114.19L157.27 113.81L157.33 113.43L157.39 113.04L157.46 112.66L157.53 112.27L157.6 111.89L157.67 111.5L157.75 111.11L157.82 110.73L157.9 110.34L157.98 109.96L158.06 109.58L158.14 109.19L158.23 108.81L158.31 108.42L158.4 108.04L158.49 107.66L158.58 107.28L158.67 106.89L158.77 106.51L158.86 106.13L158.96 105.75L159.06 105.36L159.16 104.98L159.26 104.6L159.36 104.22L159.47 103.84L159.57 103.46L159.68 103.08L159.79 102.7L159.9 102.32L160.02 101.94L160.13 101.56L160.25 101.18L160.36 100.8L160.48 100.42L160.6 100.04L160.73 99.66L160.85 99.29L160.98 98.91L161.11 98.53L161.23 98.15L161.37 97.78L161.5 97.4L161.63 97.02L161.94 96.18L162.26 95.34L162.58 94.51L162.91 93.69L163.25 92.88L163.59 92.08L163.93 91.28L164.28 90.49L164.64 89.71L165 88.94L165.37 88.18L165.75 87.42L166.13 86.68L166.51 85.94L166.9 85.21L167.3 84.49L167.7 83.77L168.11 83.07L168.52 82.37L168.94 81.68L169.37 81L169.8 80.33L170.24 79.66L170.68 79.01L171.13 78.36L171.58 77.72L172.04 77.09L172.5 76.46L172.97 75.85L173.45 75.24L173.93 74.64L174.42 74.05L174.91 73.47L175.41 72.89L175.92 72.33L176.43 71.77L176.94 71.22L177.47 70.68L177.99 70.14L178.53 69.62L179.15 69.03L179.77 68.46L180.4 67.9L181.03 67.36L181.67 66.84L182.32 66.32L182.96 65.83L183.62 65.35L184.27 64.88L184.94 64.42L185.6 63.99L186.27 63.56L186.95 63.16L187.63 62.76L188.32 62.38L189.01 62.02L189.7 61.67L190.4 61.34L191.11 61.02L191.82 60.71L192.53 60.43L193.25 60.15L193.97 59.89L194.7 59.65L195.43 59.42L196.17 59.2L196.91 59L197.66 58.82L198.41 58.64L199.17 58.49L199.93 58.35L200.7 58.22L201.47 58.11L202.24 58.01L203.02 57.93L203.81 57.87L204.6 57.81L205.39 57.78L206.19 57.75L206.99 57.75L207.39 57.75L207.78 57.75ZM199.13 169.28L197.88 169.8L196.68 170.33L195.54 170.85L194.46 171.38L193.43 171.91L192.45 172.43L191.52 172.96L190.65 173.49L189.83 174.02L189.07 174.56L188.36 175.09L187.49 175.78L186.69 176.48L185.96 177.2L185.3 177.92L184.7 178.66L184.18 179.41L183.73 180.18L183.35 180.95L183.03 181.74L182.79 182.55L182.61 183.36L182.51 184.19L182.47 185.03L182.48 185.43L182.51 185.81L182.56 186.19L182.63 186.55L182.72 186.91L182.82 187.25L182.95 187.58L183.1 187.91L183.26 188.22L183.45 188.52L183.65 188.82L183.87 189.1L184.12 189.37L184.41 189.69L184.71 189.98L185.03 190.24L185.37 190.48L185.73 190.69L186.1 190.88L186.48 191.04L186.89 191.18L187.3 191.3L187.74 191.38L188.19 191.45L188.66 191.48L189.14 191.5L189.61 191.47L190.09 191.39L190.57 191.27L191.06 191.09L191.54 190.85L192.03 190.57L192.52 190.24L193.01 189.85L193.51 189.42L194 188.93L194.5 188.39L195 187.8L195.51 187.15L196 186.47L196.48 185.74L196.94 184.94L197.39 184.1L197.81 183.19L198.23 182.23L198.62 181.21L199 180.14L199.35 179.01L199.7 177.82L200.02 176.58L200.33 175.29L200.62 173.93L201.78 168.24L200.43 168.76L199.13 169.28ZM212.59 70.01L212.35 70.03L212.11 70.04L211.87 70.07L211.64 70.09L211.4 70.12L211.16 70.16L210.93 70.2L210.69 70.24L210.46 70.3L210.22 70.35L209.99 70.41L209.75 70.48L209.52 70.54L209.29 70.62L209.05 70.7L208.82 70.78L208.59 70.87L208.36 70.96L208.13 71.06L207.9 71.16L207.67 71.27L207.44 71.38L207.21 71.5L206.98 71.62L206.75 71.75L206.52 71.88L206.3 72.02L206.07 72.16L205.84 72.31L205.62 72.46L205.39 72.61L205.17 72.77L204.95 72.93L204.72 73.1L204.5 73.27L204.28 73.45L204.06 73.63L203.84 73.81L203.62 73.99L203.4 74.18L203.19 74.38L202.97 74.57L202.75 74.77L202.54 74.98L202.32 75.19L202.11 75.4L201.9 75.61L201.68 75.83L201.47 76.06L201.26 76.28L201.05 76.51L200.84 76.75L200.64 76.99L200.43 77.23L200.22 77.47L200.02 77.72L199.81 77.98L199.61 78.23L199.4 78.49L199.2 78.76L199 79.02L198.8 79.3L198.6 79.57L198.4 79.85L198.05 80.36L197.71 80.89L197.36 81.42L197.03 81.96L196.69 82.51L196.36 83.07L196.03 83.64L195.71 84.22L195.39 84.81L195.08 85.41L194.76 86.02L194.46 86.63L194.15 87.26L193.85 87.9L193.55 88.54L193.26 89.19L192.97 89.86L192.69 90.53L192.4 91.21L192.13 91.91L191.85 92.61L191.58 93.32L191.31 94.04L191.05 94.77L190.79 95.51L190.53 96.25L190.28 97.01L190.03 97.78L189.79 98.55L189.55 99.34L189.31 100.13L189.08 100.94L188.85 101.75L188.74 102.12L188.64 102.48L188.54 102.84L188.44 103.2L188.34 103.56L188.25 103.93L188.15 104.29L188.06 104.65L187.97 105.01L187.88 105.37L187.79 105.73L187.7 106.09L187.61 106.45L187.53 106.81L187.45 107.16L187.37 107.52L187.29 107.88L187.21 108.24L187.13 108.6L187.06 108.95L186.99 109.31L186.91 109.67L186.85 110.02L186.78 110.38L186.71 110.74L186.65 111.09L186.58 111.45L186.52 111.8L186.46 112.16L186.4 112.51L186.35 112.87L186.29 113.22L186.24 113.58L186.19 113.93L186.14 114.28L186.09 114.63L186.04 114.98L186 115.32L185.95 115.66L185.91 116L185.87 116.34L185.83 116.68L185.79 117.01L185.76 117.35L185.72 117.68L185.69 118.01L185.66 118.33L185.63 118.66L185.6 118.98L185.58 119.3L185.55 119.62L185.53 119.93L185.51 120.25L185.49 120.56L185.47 120.87L185.45 121.18L185.44 121.48L185.43 121.79L185.41 122.09L185.4 122.39L185.4 122.69L185.39 122.98L185.38 123.27L185.38 123.57L185.38 123.86L185.38 124.14L185.38 124.73L185.39 125.31L185.41 125.88L185.43 126.43L185.46 126.98L185.5 127.51L185.54 128.03L185.59 128.54L185.65 129.04L185.71 129.52L185.78 130L185.86 130.46L185.94 130.91L186.03 131.35L186.13 131.77L186.23 132.19L186.34 132.59L186.46 132.99L186.59 133.37L186.72 133.73L186.86 134.09L187 134.44L187.15 134.77L187.31 135.09L187.47 135.4L187.65 135.7L187.82 135.99L188.01 136.26L188.2 136.52L188.4 136.78L188.61 137.02L188.82 137.24L189.04 137.46L189.11 137.54L189.19 137.62L189.27 137.7L189.35 137.77L189.43 137.85L189.5 137.92L189.58 137.99L189.66 138.06L189.74 138.12L189.83 138.19L189.91 138.25L189.99 138.31L190.07 138.37L190.16 138.43L190.24 138.49L190.32 138.54L190.41 138.59L190.49 138.65L190.58 138.69L190.67 138.74L190.75 138.79L190.84 138.83L190.93 138.87L191.02 138.91L191.11 138.95L191.19 138.99L191.28 139.03L191.38 139.06L191.47 139.09L191.56 139.12L191.65 139.15L191.74 139.17L191.84 139.2L191.93 139.22L192.02 139.24L192.12 139.26L192.22 139.28L192.31 139.3L192.41 139.32L192.51 139.34L192.61 139.36L192.71 139.38L192.81 139.39L192.91 139.41L193.01 139.42L193.11 139.44L193.21 139.45L193.32 139.46L193.42 139.48L193.53 139.49L193.64 139.5L193.74 139.51L193.85 139.52L193.96 139.53L194.07 139.53L194.18 139.54L194.29 139.55L194.4 139.55L194.51 139.56L194.62 139.56L194.74 139.57L194.85 139.57L194.97 139.57L195.08 139.57L195.2 139.58L195.32 139.58L195.57 139.57L195.83 139.56L196.09 139.54L196.35 139.52L196.61 139.49L196.88 139.45L197.14 139.4L197.4 139.35L197.67 139.28L197.93 139.22L198.2 139.14L198.47 139.06L198.74 138.97L199.01 138.87L199.28 138.76L199.55 138.65L199.82 138.53L200.09 138.4L200.37 138.27L200.64 138.13L200.92 137.98L201.19 137.82L201.47 137.66L201.75 137.49L202.03 137.31L202.31 137.13L202.59 136.93L202.87 136.73L203.15 136.53L203.44 136.31L203.72 136.09L204.01 135.86L204.29 135.62L204.6 135.35L204.9 135.08L205.19 134.8L205.48 134.51L205.76 134.22L206.04 133.92L206.31 133.62L206.57 133.32L206.83 133.01L207.08 132.7L207.32 132.38L207.56 132.05L207.79 131.72L208.02 131.39L208.24 131.05L208.45 130.71L208.66 130.36L208.86 130.01L209.06 129.65L209.25 129.29L209.43 128.92L209.61 128.55L209.78 128.17L209.94 127.79L210.1 127.4L210.25 127.01L210.4 126.62L210.54 126.22L210.67 125.81L210.8 125.4L210.92 124.99L211.03 124.57L211.14 124.14L221.17 77.34L221.17 77.28L221.17 77.22L221.17 77.16L221.16 77.1L221.16 77.04L221.15 76.98L221.15 76.92L221.14 76.85L221.14 76.79L221.13 76.73L221.12 76.66L221.11 76.6L221.1 76.53L221.09 76.47L221.08 76.4L221.07 76.33L221.06 76.27L221.04 76.2L221.03 76.13L221.01 76.06L221 75.99L220.98 75.92L220.96 75.85L220.94 75.78L220.92 75.71L220.9 75.64L220.88 75.57L220.86 75.49L220.84 75.42L220.82 75.34L220.79 75.27L220.77 75.19L220.74 75.12L220.71 75.04L220.69 74.97L220.66 74.89L220.63 74.82L220.6 74.74L220.57 74.67L220.54 74.6L220.51 74.52L220.48 74.45L220.45 74.38L220.42 74.31L220.38 74.23L220.35 74.16L220.31 74.09L220.28 74.02L220.24 73.95L220.21 73.88L220.17 73.81L220.13 73.74L220.09 73.67L220.05 73.6L220.01 73.53L219.97 73.46L219.93 73.4L219.89 73.33L219.85 73.26L219.81 73.19L219.76 73.13L219.72 73.06L219.67 73L219.63 72.93L219.58 72.86L219.54 72.8L219.39 72.63L219.25 72.47L219.1 72.32L218.95 72.16L218.79 72.02L218.63 71.88L218.47 71.74L218.3 71.61L218.13 71.48L217.96 71.36L217.79 71.25L217.61 71.14L217.42 71.03L217.24 70.93L217.05 70.84L216.86 70.75L216.66 70.66L216.46 70.58L216.26 70.51L216.05 70.44L215.84 70.38L215.63 70.32L215.41 70.26L215.19 70.21L214.97 70.17L214.74 70.13L214.52 70.1L214.28 70.07L214.05 70.05L213.81 70.03L213.56 70.02L213.32 70.01L213.07 70.01L212.83 70.01L212.59 70.01Z" id="a1JOydh5P9"></path><path d="M312.72 57.06L313.91 57.16L315.07 57.29L316.19 57.47L317.29 57.69L318.35 57.94L319.38 58.24L320.38 58.58L321.35 58.95L322.28 59.36L323.19 59.82L324.06 60.31L324.9 60.84L325.71 61.42L326.49 62.03L327.23 62.68L327.95 63.37L328.63 64.1L329.28 64.87L329.9 65.68L330.48 66.52L331.04 67.41L331.56 68.34L332.05 69.3L332.51 70.31L332.94 71.36L333.34 72.44L333.7 73.56L334.04 74.73L334.34 75.93L334.61 77.17L334.84 78.46L335.05 79.78L335.22 81.14L335.37 82.54L335.48 83.98L335.56 85.46L335.61 86.98L335.62 88.53L335.62 88.72L335.65 88.73L335.68 88.74L335.71 88.75L335.73 88.76L335.76 88.77L335.79 88.78L335.82 88.79L335.84 88.8L335.87 88.8L335.9 88.81L335.92 88.82L335.95 88.83L335.98 88.83L336 88.84L336.03 88.85L336.05 88.85L336.08 88.86L336.1 88.86L336.13 88.87L336.15 88.87L336.18 88.88L336.2 88.88L336.22 88.89L336.25 88.89L336.27 88.89L336.29 88.9L336.31 88.9L336.34 88.9L336.36 88.91L336.38 88.91L336.4 88.91L336.42 88.91L336.45 88.91L336.47 88.92L336.49 88.92L336.51 88.92L336.53 88.92L336.55 88.92L336.57 88.92L336.59 88.92L337.74 88.92L338.07 88.92L338.4 88.91L338.74 88.9L339.08 88.88L339.42 88.86L339.76 88.84L340.11 88.81L340.46 88.77L340.82 88.73L341.18 88.69L341.54 88.64L341.9 88.59L342.26 88.53L342.63 88.47L343.01 88.4L343.38 88.33L343.76 88.26L344.14 88.18L344.52 88.09L344.91 88L345.3 87.91L345.69 87.81L346.09 87.71L346.49 87.6L346.89 87.49L347.29 87.37L347.7 87.25L348.11 87.12L348.53 86.99L348.94 86.86L349.36 86.72L349.79 86.57L350.21 86.42L350.64 86.27L351.07 86.11L351.51 85.95L351.95 85.78L352.39 85.61L352.83 85.43L353.28 85.25L353.67 85.08L354.07 84.92L354.46 84.75L354.85 84.58L355.24 84.4L355.63 84.23L356.02 84.05L356.41 83.87L356.8 83.69L357.18 83.51L357.57 83.32L357.95 83.13L358.33 82.94L358.71 82.75L359.09 82.56L359.47 82.36L359.85 82.17L360.23 81.97L360.6 81.76L360.98 81.56L361.35 81.35L361.72 81.15L362.09 80.94L362.46 80.72L362.83 80.51L363.2 80.29L363.57 80.08L363.93 79.85L364.3 79.63L364.66 79.41L365.02 79.18L365.39 78.95L365.75 78.72L366.11 78.49L366.46 78.26L366.82 78.02L367.18 77.78L367.53 77.54L367.89 77.3L368.24 77.05L369.98 82.45L369.69 82.76L369.39 83.06L369.09 83.36L368.79 83.65L368.48 83.94L368.16 84.24L367.85 84.52L367.53 84.81L367.2 85.1L366.87 85.38L366.54 85.66L366.2 85.94L365.86 86.21L365.52 86.48L365.17 86.75L364.81 87.02L364.45 87.29L364.09 87.55L363.73 87.81L363.35 88.07L362.98 88.33L362.6 88.58L362.22 88.84L361.83 89.09L361.44 89.34L361.04 89.58L360.65 89.82L360.24 90.06L359.83 90.3L359.42 90.54L359.01 90.77L358.59 91.01L358.16 91.23L357.73 91.46L357.3 91.69L356.86 91.91L356.42 92.13L355.98 92.35L355.53 92.56L355.07 92.78L354.62 92.99L354.16 93.2L353.69 93.4L353.23 93.6L352.76 93.8L352.29 94L351.82 94.19L351.35 94.38L350.87 94.57L350.39 94.75L349.91 94.93L349.43 95.11L348.94 95.29L348.46 95.46L347.97 95.63L347.47 95.79L346.98 95.95L346.48 96.11L345.98 96.27L345.48 96.42L344.98 96.57L344.47 96.72L343.96 96.87L343.45 97.01L342.94 97.15L342.42 97.28L341.9 97.41L341.38 97.54L340.86 97.67L340.33 97.79L339.8 97.91L339.27 98.03L338.74 98.14L338.21 98.26L337.67 98.36L337.13 98.47L336.59 98.57L336.04 98.67L335.5 98.77L334.95 98.86L334.89 99.53L334.82 100.19L334.76 100.86L334.69 101.52L334.61 102.18L334.53 102.83L334.45 103.48L334.37 104.13L334.28 104.78L334.19 105.42L334.09 106.06L333.99 106.69L333.89 107.33L333.78 107.96L333.67 108.59L333.56 109.21L333.44 109.83L333.32 110.45L333.19 111.07L333.06 111.68L332.93 112.29L332.8 112.9L332.66 113.5L332.51 114.1L332.37 114.7L332.22 115.3L332.06 115.89L331.91 116.48L331.74 117.06L331.58 117.65L331.41 118.23L331.24 118.8L331.06 119.38L330.88 119.95L330.7 120.52L330.52 121.08L330.33 121.65L330.13 122.21L329.94 122.76L329.74 123.32L329.53 123.87L329.32 124.41L329.11 124.96L328.9 125.5L328.69 126.03L328.47 126.56L328.25 127.09L328.02 127.61L327.79 128.13L327.56 128.65L327.33 129.16L327.1 129.67L326.86 130.17L326.62 130.67L326.37 131.16L326.12 131.66L325.87 132.14L325.62 132.63L325.36 133.11L325.11 133.58L324.84 134.06L324.58 134.52L324.31 134.99L324.04 135.45L323.77 135.9L323.49 136.36L323.21 136.81L322.93 137.25L322.64 137.69L322.36 138.13L322.06 138.56L321.77 138.99L321.47 139.41L321.17 139.84L320.87 140.25L320.57 140.67L320.26 141.07L319.95 141.48L319.63 141.88L319.31 142.28L319 142.66L318.68 143.04L318.36 143.42L318.04 143.79L317.72 144.15L317.39 144.52L317.06 144.87L316.73 145.23L316.4 145.58L316.06 145.92L315.73 146.26L315.39 146.59L315.04 146.92L314.7 147.25L314.35 147.57L314 147.89L313.65 148.2L313.3 148.51L312.94 148.81L312.58 149.11L312.22 149.41L311.86 149.7L311.49 149.98L311.13 150.26L310.76 150.54L310.38 150.81L310.01 151.08L309.63 151.34L309.25 151.6L308.87 151.86L308.49 152.1L308.1 152.35L307.72 152.59L307.33 152.83L306.93 153.06L306.54 153.29L306.14 153.51L305.74 153.73L305.34 153.94L304.94 154.15L304.53 154.36L304.12 154.56L303.71 154.75L303.3 154.94L302.89 155.12L302.48 155.3L302.07 155.48L301.65 155.64L301.24 155.81L300.82 155.97L300.4 156.12L299.98 156.27L299.56 156.41L299.14 156.55L298.72 156.68L298.3 156.8L297.87 156.93L297.44 157.04L297.02 157.15L296.59 157.26L296.16 157.36L295.73 157.46L295.29 157.55L294.86 157.63L294.43 157.71L293.99 157.79L293.55 157.86L293.11 157.92L292.67 157.98L292.23 158.04L291.79 158.09L291.35 158.13L290.9 158.17L290.46 158.2L290.01 158.23L289.56 158.26L289.11 158.27L288.66 158.29L288.21 158.29L287.76 158.3L287.03 158.29L286.31 158.28L285.59 158.26L284.89 158.23L284.19 158.19L283.51 158.14L282.83 158.08L282.16 158.01L281.49 157.94L280.84 157.85L280.19 157.76L279.56 157.66L278.93 157.54L278.31 157.42L277.69 157.3L277.09 157.16L276.49 157.01L275.9 156.85L275.33 156.69L274.75 156.52L274.19 156.33L273.64 156.14L273.09 155.94L272.55 155.73L272.02 155.51L271.5 155.29L270.99 155.05L270.49 154.8L269.99 154.55L269.5 154.29L269.02 154.01L268.55 153.73L268.09 153.44L267.63 153.14L267.19 152.84L266.75 152.52L266.32 152.19L265.9 151.86L265.48 151.51L265.08 151.16L264.63 150.76L264.2 150.35L263.78 149.93L263.37 149.5L262.97 149.05L262.59 148.6L262.21 148.14L261.85 147.67L261.49 147.19L261.15 146.69L260.82 146.19L260.5 145.68L260.19 145.15L259.9 144.62L259.61 144.07L259.34 143.52L259.07 142.95L258.82 142.38L258.58 141.79L258.35 141.2L258.13 140.59L257.92 139.98L257.73 139.35L257.54 138.71L257.37 138.07L257.21 137.41L257.06 136.74L256.92 136.07L256.79 135.38L256.67 134.68L256.56 133.97L256.47 133.25L256.38 132.52L256.31 131.78L256.25 131.03L256.2 130.27L256.16 129.5L256.13 128.72L256.11 127.93L256.11 127.13L256.11 126.83L256.11 126.52L256.12 126.21L256.12 125.9L256.13 125.59L256.14 125.28L256.15 124.96L256.16 124.65L256.17 124.33L256.19 124.01L256.2 123.69L256.22 123.37L256.24 123.04L256.26 122.72L256.29 122.39L256.31 122.06L256.34 121.73L256.36 121.4L256.39 121.06L256.42 120.73L256.45 120.39L256.49 120.05L256.52 119.71L256.56 119.37L256.6 119.02L256.64 118.68L256.68 118.33L256.72 117.98L256.77 117.63L256.81 117.28L256.86 116.93L256.91 116.57L256.96 116.22L257.02 115.86L257.07 115.5L257.13 115.14L257.18 114.77L257.24 114.41L257.3 114.04L257.36 113.67L257.43 113.31L257.49 112.94L257.56 112.57L257.63 112.2L257.7 111.82L257.77 111.45L257.85 111.08L257.92 110.71L258 110.34L258.08 109.97L258.16 109.6L258.24 109.23L258.32 108.86L258.41 108.48L258.5 108.11L258.58 107.74L258.68 107.37L258.77 107L258.86 106.62L258.96 106.25L259.05 105.88L259.15 105.5L259.25 105.13L259.35 104.76L259.46 104.38L259.56 104.01L259.67 103.64L259.78 103.26L259.89 102.89L260 102.51L260.12 102.14L260.23 101.76L260.35 101.39L260.47 101.01L260.59 100.64L260.71 100.26L260.84 99.89L260.96 99.51L261.09 99.14L261.22 98.76L261.52 97.87L261.83 96.99L262.15 96.11L262.47 95.25L262.8 94.39L263.13 93.54L263.47 92.7L263.82 91.87L264.17 91.05L264.54 90.24L264.9 89.44L265.27 88.65L265.65 87.86L266.04 87.09L266.43 86.32L266.83 85.56L267.23 84.81L267.65 84.07L268.06 83.34L268.49 82.62L268.92 81.91L269.35 81.21L269.8 80.51L270.25 79.83L270.7 79.15L271.16 78.49L271.63 77.83L272.11 77.18L272.59 76.54L273.08 75.91L273.57 75.29L274.07 74.67L274.58 74.07L275.09 73.48L275.61 72.89L276.13 72.31L276.67 71.75L277.2 71.19L277.75 70.64L278.3 70.1L278.97 69.45L279.65 68.82L280.34 68.21L281.03 67.61L281.73 67.02L282.44 66.46L283.15 65.91L283.87 65.38L284.6 64.86L285.33 64.36L286.06 63.88L286.81 63.41L287.56 62.96L288.32 62.52L289.08 62.1L289.85 61.7L290.63 61.32L291.41 60.95L292.2 60.6L292.99 60.26L293.79 59.94L294.6 59.64L295.42 59.35L296.24 59.08L297.07 58.82L297.9 58.59L298.74 58.36L299.59 58.16L300.44 57.97L301.3 57.8L302.16 57.64L303.04 57.5L303.91 57.38L304.8 57.27L305.69 57.18L306.59 57.11L307.49 57.05L308.4 57.01L309.32 56.99L310.24 56.98L311.5 57L312.72 57.06ZM311.12 68.98L310.75 69.02L310.37 69.08L309.99 69.15L309.61 69.24L309.23 69.35L308.86 69.47L308.48 69.61L308.1 69.76L307.73 69.94L307.35 70.12L306.98 70.33L306.6 70.55L306.23 70.79L305.86 71.04L305.48 71.31L305.11 71.6L304.74 71.9L304.37 72.22L304 72.56L303.63 72.91L303.26 73.28L302.89 73.66L302.52 74.06L302.15 74.48L301.78 74.92L301.42 75.37L301.05 75.83L300.68 76.32L300.32 76.82L299.95 77.33L299.59 77.87L299.22 78.42L298.86 78.98L298.52 79.5L298.19 80.03L297.86 80.57L297.54 81.11L297.22 81.66L296.9 82.22L296.59 82.78L296.28 83.35L295.97 83.93L295.67 84.51L295.37 85.11L295.07 85.7L294.78 86.31L294.49 86.92L294.2 87.54L293.92 88.17L293.64 88.8L293.36 89.44L293.09 90.08L292.82 90.74L292.56 91.4L292.29 92.06L292.04 92.74L291.78 93.42L291.53 94.11L291.28 94.8L291.04 95.5L290.8 96.21L290.56 96.93L290.32 97.65L290.09 98.38L289.87 99.12L289.64 99.86L289.42 100.61L289.21 101.37L289 102.11L288.8 102.85L288.6 103.58L288.41 104.31L288.23 105.03L288.06 105.75L287.88 106.46L287.72 107.17L287.56 107.88L287.41 108.58L287.26 109.27L287.12 109.96L286.99 110.65L286.86 111.33L286.74 112L286.62 112.67L286.51 113.34L286.4 114L286.3 114.66L286.21 115.31L286.13 115.96L286.04 116.6L285.97 117.24L285.9 117.87L285.84 118.5L285.78 119.12L285.73 119.74L285.69 120.36L285.65 120.97L285.61 121.57L285.59 122.17L285.57 122.77L285.55 123.36L285.54 123.94L285.54 124.52L285.54 124.8L285.54 125.08L285.54 125.35L285.55 125.63L285.55 125.89L285.56 126.16L285.56 126.42L285.57 126.68L285.57 126.93L285.58 127.19L285.59 127.44L285.6 127.68L285.61 127.93L285.62 128.17L285.64 128.41L285.65 128.64L285.66 128.87L285.68 129.1L285.7 129.33L285.71 129.55L285.73 129.77L285.75 129.99L285.77 130.2L285.79 130.41L285.81 130.62L285.83 130.83L285.85 131.03L285.88 131.23L285.9 131.43L285.93 131.62L285.95 131.81L285.98 132L286.01 132.18L286.04 132.36L286.07 132.54L286.1 132.72L286.13 132.89L286.16 133.06L286.2 133.23L286.23 133.4L286.27 133.56L286.31 133.72L286.35 133.88L286.39 134.04L286.43 134.2L286.47 134.35L286.52 134.5L286.56 134.65L286.61 134.8L286.65 134.94L286.7 135.08L286.75 135.22L286.8 135.36L286.86 135.5L286.91 135.63L286.96 135.76L287.02 135.89L287.08 136.02L287.14 136.14L287.19 136.26L287.26 136.38L287.32 136.5L287.38 136.62L287.44 136.73L287.51 136.84L287.58 136.95L287.64 137.06L287.71 137.16L287.78 137.27L287.85 137.37L287.92 137.46L287.99 137.56L288.06 137.66L288.13 137.75L288.2 137.84L288.27 137.93L288.35 138.02L288.42 138.11L288.5 138.19L288.57 138.27L288.65 138.36L288.73 138.44L288.81 138.51L288.89 138.59L288.97 138.67L289.06 138.74L289.14 138.81L289.23 138.88L289.31 138.95L289.4 139.02L289.49 139.08L289.58 139.15L289.67 139.21L289.76 139.27L289.86 139.33L289.95 139.38L290.04 139.44L290.14 139.49L290.24 139.54L290.34 139.59L290.44 139.64L290.54 139.69L290.64 139.74L290.74 139.78L290.85 139.82L290.95 139.86L291.06 139.9L291.17 139.94L291.28 139.98L291.4 140.02L291.51 140.05L291.63 140.08L291.75 140.12L291.87 140.15L291.99 140.18L292.11 140.21L292.24 140.24L292.37 140.26L292.5 140.29L292.63 140.31L292.77 140.34L292.9 140.36L293.04 140.38L293.18 140.4L293.32 140.42L293.46 140.43L293.61 140.45L293.76 140.46L293.91 140.48L294.06 140.49L294.21 140.5L294.37 140.51L294.52 140.52L294.68 140.53L294.84 140.53L295 140.54L295.17 140.54L295.33 140.55L295.5 140.55L295.67 140.55L295.87 140.55L296.07 140.54L296.27 140.52L296.47 140.51L296.67 140.48L296.87 140.46L297.07 140.42L297.27 140.38L297.47 140.34L297.67 140.29L297.87 140.24L298.07 140.18L298.27 140.11L298.47 140.04L298.68 139.97L298.88 139.89L299.08 139.81L299.28 139.72L299.49 139.62L299.69 139.52L299.89 139.42L300.1 139.31L300.3 139.19L300.5 139.07L300.71 138.95L300.91 138.82L301.12 138.68L301.32 138.54L301.53 138.39L301.73 138.24L301.94 138.09L302.14 137.92L302.35 137.76L302.56 137.59L302.76 137.41L302.97 137.23L303.17 137.04L303.38 136.86L303.58 136.66L303.79 136.47L303.99 136.26L304.19 136.06L304.39 135.85L304.6 135.64L304.8 135.42L305 135.2L305.19 134.97L305.39 134.74L305.59 134.51L305.79 134.27L305.98 134.03L306.18 133.78L306.37 133.54L306.57 133.28L306.76 133.02L306.95 132.76L307.14 132.5L307.33 132.23L307.52 131.95L307.71 131.68L307.9 131.39L308.09 131.11L308.28 130.82L308.46 130.53L308.65 130.23L308.83 129.93L309.02 129.62L309.2 129.31L309.38 129L309.57 128.68L309.75 128.36L309.93 128.03L310.11 127.71L310.28 127.37L310.46 127.04L310.63 126.7L310.81 126.36L310.98 126.02L311.15 125.67L311.32 125.32L311.48 124.97L311.65 124.61L311.81 124.25L311.98 123.89L312.14 123.53L312.3 123.16L312.46 122.79L312.61 122.41L312.77 122.03L312.92 121.65L313.08 121.27L313.23 120.88L313.38 120.49L313.53 120.09L313.67 119.7L313.82 119.3L313.96 118.89L314.1 118.49L314.25 118.08L314.39 117.66L314.52 117.25L314.66 116.83L314.8 116.41L314.93 115.98L315.06 115.55L315.19 115.12L315.32 114.69L315.45 114.26L315.58 113.82L315.7 113.38L315.82 112.94L315.94 112.5L316.06 112.06L316.18 111.61L316.29 111.16L316.4 110.72L316.52 110.27L316.62 109.81L316.73 109.36L316.84 108.91L316.94 108.45L317.04 107.99L317.14 107.53L317.24 107.07L317.33 106.6L317.43 106.14L317.52 105.67L317.61 105.2L317.7 104.73L317.78 104.26L317.87 103.78L317.95 103.31L318.03 102.83L318.11 102.35L318.18 101.87L318.26 101.39L318.33 100.9L318.4 100.42L318.47 99.93L318.54 99.44L318.37 99.39L318.21 99.34L318.05 99.29L317.9 99.24L317.75 99.19L317.6 99.13L317.45 99.07L317.3 99.01L317.16 98.95L317.02 98.88L316.89 98.82L316.75 98.75L316.62 98.67L316.49 98.6L316.37 98.52L316.25 98.45L316.13 98.37L316.01 98.28L315.89 98.2L315.78 98.11L315.67 98.02L315.57 97.93L315.46 97.84L315.36 97.74L315.27 97.64L315.17 97.54L315.08 97.44L314.99 97.34L314.9 97.23L314.82 97.12L314.74 97.01L314.66 96.9L314.58 96.78L314.51 96.66L314.44 96.54L314.37 96.42L314.31 96.3L314.24 96.17L314.18 96.04L314.12 95.91L314.06 95.78L314.01 95.65L313.95 95.51L313.9 95.38L313.85 95.24L313.8 95.09L313.75 94.95L313.71 94.81L313.67 94.66L313.63 94.51L313.59 94.36L313.55 94.21L313.52 94.05L313.48 93.9L313.45 93.74L313.42 93.58L313.4 93.42L313.37 93.25L313.35 93.09L313.33 92.92L313.31 92.75L313.29 92.58L313.28 92.4L313.26 92.23L313.25 92.05L313.24 91.87L313.24 91.69L313.23 91.51L313.23 91.33L313.23 91.14L313.23 90.91L313.23 90.68L313.24 90.45L313.25 90.23L313.26 90.01L313.28 89.79L313.29 89.57L313.31 89.36L313.34 89.14L313.36 88.93L313.39 88.73L313.42 88.52L313.46 88.32L313.49 88.11L313.53 87.91L313.57 87.72L313.62 87.52L313.66 87.33L313.71 87.14L313.77 86.95L313.82 86.76L313.88 86.58L313.94 86.4L314 86.22L314.07 86.04L314.14 85.86L314.21 85.69L314.28 85.52L314.36 85.35L314.44 85.18L314.52 85.02L314.6 84.86L314.69 84.7L314.78 84.54L314.87 84.38L314.97 84.23L315.07 84.08L315.16 83.93L315.27 83.79L315.37 83.64L315.47 83.5L315.58 83.36L315.69 83.22L315.8 83.09L315.91 82.96L316.03 82.83L316.15 82.7L316.27 82.58L316.39 82.45L316.51 82.33L316.64 82.22L316.76 82.1L316.89 81.99L317.03 81.88L317.16 81.77L317.29 81.66L317.43 81.56L317.57 81.46L317.71 81.36L317.86 81.26L318 81.17L318.15 81.07L318.3 80.99L318.45 80.9L318.61 80.81L318.76 80.73L318.92 80.65L319.08 80.57L319.24 80.5L319.41 80.43L319.39 80.07L319.36 79.72L319.33 79.38L319.3 79.04L319.27 78.71L319.24 78.38L319.2 78.06L319.17 77.74L319.13 77.44L319.09 77.13L319.04 76.84L319 76.54L318.95 76.26L318.9 75.98L318.85 75.71L318.79 75.44L318.74 75.18L318.68 74.92L318.62 74.67L318.56 74.42L318.49 74.18L318.43 73.95L318.36 73.72L318.29 73.5L318.22 73.29L318.14 73.08L318.07 72.87L317.99 72.68L317.91 72.48L317.83 72.3L317.74 72.12L317.66 71.94L317.57 71.77L317.48 71.61L317.38 71.45L317.33 71.38L317.28 71.3L317.23 71.23L317.18 71.15L317.13 71.08L317.07 71.01L317.02 70.94L316.96 70.88L316.91 70.81L316.85 70.74L316.79 70.68L316.74 70.62L316.68 70.55L316.62 70.49L316.56 70.44L316.5 70.38L316.44 70.32L316.37 70.27L316.31 70.21L316.25 70.16L316.18 70.11L316.12 70.06L316.05 70.01L315.99 69.96L315.92 69.91L315.85 69.87L315.78 69.83L315.71 69.78L315.64 69.74L315.57 69.7L315.5 69.66L315.43 69.63L315.36 69.59L315.28 69.56L315.21 69.52L315.13 69.49L315.06 69.46L314.98 69.43L314.9 69.4L314.82 69.37L314.74 69.34L314.66 69.31L314.57 69.29L314.49 69.26L314.4 69.24L314.32 69.22L314.23 69.19L314.14 69.17L314.05 69.15L313.96 69.13L313.86 69.12L313.77 69.1L313.68 69.08L313.58 69.07L313.48 69.05L313.38 69.04L313.28 69.02L313.18 69.01L313.08 69L312.98 68.99L312.87 68.98L312.77 68.97L312.66 68.97L312.55 68.96L312.45 68.96L312.34 68.95L312.22 68.95L312.11 68.95L312 68.94L311.88 68.94L311.5 68.95L311.12 68.98Z" id="dvVgtXgzb"></path></defs><g><g><g><g><use xlink:href="#e1Uqkjmy60" opacity="1" fill-opacity="0" stroke="#6ba0bd" stroke-width="5" stroke-opacity="1"></use></g></g><g><g><use xlink:href="#a1LqdJhwL2" opacity="0.14" fill="#a0c9e1" fill-opacity="1"></use></g><g><g><use xlink:href="#a7C48N6QVw" opacity="0.14" fill="#a0c9e1" fill-opacity="1"></use></g><g><g><g><use xlink:href="#c1ZcqWV7OO" opacity="1" fill="#4886a8" fill-opacity="1"></use><g><use xlink:href="#c1ZcqWV7OO" opacity="1" fill-opacity="0" stroke="#4183a7" stroke-width="2" stroke-opacity="1"></use></g></g><g><use xlink:href="#cepsLWMqO" opacity="1" fill="#a0c9e1" fill-opacity="1"></use><g><use xlink:href="#cepsLWMqO" opacity="1" fill-opacity="0" stroke="#95bed5" stroke-width="2" stroke-opacity="1"></use></g></g><g><use xlink:href="#b2QvanfcH2" opacity="1" fill="#6ba0bd" fill-opacity="1"></use><g><use xlink:href="#b2QvanfcH2" opacity="1" fill-opacity="0" stroke="#649dbc" stroke-width="2" stroke-opacity="1"></use></g></g></g><g><g><use xlink:href="#d2GTpHXmQu" opacity="1" fill="#4886a8" fill-opacity="1"></use></g><g><use xlink:href="#a6Ips92cf9" opacity="1" fill="#4886a8" fill-opacity="1"></use></g><g><use xlink:href="#bGopqZVLr" opacity="1" fill="#9fc8e0" fill-opacity="1"></use></g></g></g><g><use xlink:href="#baJ6CxZsX" opacity="1" fill="#6ba0bd" fill-opacity="1"></use><g><use xlink:href="#baJ6CxZsX" opacity="1" fill-opacity="0" stroke="#649dbc" stroke-width="2" stroke-opacity="1"></use></g></g><g><g><use xlink:href="#aAcjZpkBB" opacity="1" fill="#4886a8" fill-opacity="1"></use></g><g><use xlink:href="#e1hNvyp0zJ" opacity="1" fill="#4886a8" fill-opacity="1"></use></g><g><use xlink:href="#c5gwIR9mh" opacity="1" fill="#9fc8e0" fill-opacity="1"></use></g></g></g><g><g><use xlink:href="#c8c97IZi0" opacity="1" fill="#9fc8e0" fill-opacity="1"></use><g><use xlink:href="#c8c97IZi0" opacity="1" fill-opacity="0" stroke="#6ba0bd" stroke-width="5" stroke-opacity="1"></use></g></g><g><use xlink:href="#b75J7Z12T" opacity="1" fill="#9fc8e0" fill-opacity="1"></use><g><use xlink:href="#b75J7Z12T" opacity="1" fill-opacity="0" stroke="#6ba0bd" stroke-width="5" stroke-opacity="1"></use></g></g><g><use xlink:href="#a1JOydh5P9" opacity="1" fill="#9fc8e0" fill-opacity="1"></use><g><use xlink:href="#a1JOydh5P9" opacity="1" fill-opacity="0" stroke="#6ba0bd" stroke-width="5" stroke-opacity="1"></use></g></g><g><use xlink:href="#dvVgtXgzb" opacity="1" fill="#9fc8e0" fill-opacity="1"></use><g><use xlink:href="#dvVgtXgzb" opacity="1" fill-opacity="0" stroke="#6ba0bd" stroke-width="5" stroke-opacity="1"></use></g></g></g></g></g></g></svg>