<?xml version="1.0" encoding="utf-8"?>
<!-- Generator: Adobe Illustrator 14.0.0, SVG Export Plug-In . SVG Version: 6.00 Build 43363)  -->
<!DOCTYPE svg PUBLIC "-//W3C//DTD SVG 1.1//EN" "http://www.w3.org/Graphics/SVG/1.1/DTD/svg11.dtd">
<svg version="1.1" id="Calque_1" xmlns="http://www.w3.org/2000/svg" xmlns:xlink="http://www.w3.org/1999/xlink" x="0px" y="0px"
	 width="414.655px" height="148.276px" viewBox="0 0 414.655 148.276" enable-background="new 0 0 414.655 148.276"
	 xml:space="preserve">
<g>
	<path fill="#59C3E6" d="M222.524,140.659c-3.147-1.439-6.547-3.477-10.194-6.123c-3.327-2.326-6.635-4.881-9.917-7.658
		c-7.706-6.387-14.754-10.896-21.134-13.547c-3.695-1.553-7.661-2.322-11.901-2.322h-1.574c-0.271,0-0.82,0.049-1.641,0.137
		l20.859-97.058c-6.288,2.597-11.124,6.464-14.499,11.594c-3.377,5.13-5.058,11.431-5.058,18.913c0,2.871,0.312,5.223,0.956,7.047
		c0.177,0.592,0.409,1.119,0.684,1.569c0.177,0.32,0.272,0.642,0.272,0.957c-5.06,0-8.755-1.025-11.085-3.076
		c-2.592-2.19-3.896-5.7-3.896-10.534c0-3.054,0.664-6.074,1.988-9.063c1.315-2.982,3.185-5.869,5.603-8.649
		c2.331-2.689,5.072-5.189,8.247-7.493c3.169-2.301,6.573-4.3,10.225-5.984c7.752-3.511,15.455-5.267,23.116-5.267
		c1.685,0,3.559,0.116,5.609,0.343l-21.545,100.542c2.234,0.508,4.503,1.256,6.803,2.262c2.304,1,4.938,2.301,7.901,3.898
		l7.661,4.104c5.925,3.24,11.289,5.471,16.071,6.705c2.737,0.729,5.615,1.092,8.619,1.092c4.245,0,8.163-0.752,11.765-2.258
		c-0.819,6.84-2.488,12.195-4.993,16.074c-1.229,1.912-2.657,3.383-4.273,4.412c-1.62,1.025-3.385,1.537-5.299,1.537
		C228.789,142.811,225.665,142.094,222.524,140.659z"/>
	<path fill="#59C3E6" d="M210.757,103.415c-3.968-3.693-5.952-9.367-5.952-17.029c0-2.871,0.287-6.061,0.856-9.576
		c0.571-3.513,1.424-7.022,2.566-10.534c1.268-3.922,2.902-7.635,4.891-11.146c1.981-3.512,4.298-6.612,6.943-9.307
		c6.112-6.2,13.627-9.3,22.571-9.3c5.698,0,9.843,1.365,12.445,4.103c2.011,2.146,3.01,5.243,3.01,9.302
		c0,3.967-0.865,7.696-2.596,11.187c-1.738,3.483-4.133,6.575-7.186,9.267c-3.055,2.644-6.521,4.751-10.397,6.328
		c-3.872,1.566-7.893,2.494-12.037,2.768c-0.231,2.365-0.342,4.24-0.342,5.611c0,4.555,0.863,7.705,2.599,9.436
		c1.506,1.553,4.011,2.326,7.529,2.326c5.055,0,9.685-1.369,13.877-4.102c1.783-1.139,3.492-2.502,5.137-4.07
		c1.638-1.576,3.55-3.564,5.741-5.982h4.788c-4.427,7.477-9.506,13.426-15.25,17.848c-7.075,5.385-14.821,8.066-23.254,8.066
		C219.811,108.608,214.493,106.883,210.757,103.415z M234.559,70.516c2.462-1.324,4.651-3.052,6.568-5.198
		c1.917-2.187,3.418-4.638,4.513-7.354c1.095-2.711,1.645-5.48,1.645-8.311c0-1.867-0.266-3.288-0.789-4.273
		c-0.523-0.98-1.425-1.471-2.701-1.471c-1.685,0-3.384,0.82-5.096,2.465c-1.711,1.639-3.365,3.898-4.962,6.769
		c-1.458,2.695-2.777,5.747-3.963,9.168c-1.19,3.421-2.123,6.905-2.807,10.464C229.568,72.591,232.097,71.843,234.559,70.516z"/>
	<path fill="#59C3E6" d="M279.055,141.958c-1.896-0.57-3.523-1.426-4.891-2.564c-1.463-1.141-2.601-2.563-3.423-4.271
		c-0.822-1.717-1.233-3.684-1.233-5.922c0-5.289,2.486-9.828,7.458-13.609c3.738-2.785,8.867-5.197,15.391-7.254l1.709-7.383
		c-4.79,5.105-10.397,7.654-16.827,7.654c-5.335,0-9.643-1.658-12.927-4.988c-3.829-3.918-5.741-9.756-5.741-17.512
		c0-3.283,0.325-6.74,0.987-10.396c0.662-3.645,1.633-7.247,2.906-10.807c2.919-8.023,6.91-14.5,11.976-19.424
		c5.834-5.609,12.558-8.415,20.176-8.415c3.783,0,6.618,0.655,8.514,1.955c1.889,1.298,2.837,3.018,2.837,5.16v0.822l1.509-7.253
		h20.173l-13.88,64.981c4.42-1.461,7.957-3.646,10.596-6.566c2.873-3.15,5.226-7.633,7.049-13.471h5.878
		c-2.505,8.293-6.243,14.695-11.215,19.217c-3.652,3.283-8.163,5.607-13.543,6.973l-2.118,10.127
		c-1.78,8.936-5.337,15.41-10.667,19.424c-3.882,2.914-8.734,4.377-14.573,4.377C282.985,142.811,280.944,142.524,279.055,141.958z
		 M286.474,128.79c1.549-2.002,2.759-5.129,3.626-9.369l0.822-4.037c-4.242,1.598-7.417,3.213-9.511,4.857
		c-2.782,2.096-4.173,4.443-4.173,7.043c0,1.232,0.387,2.258,1.164,3.078c0.862,1.006,2.053,1.506,3.559,1.506
		C283.419,131.868,284.925,130.842,286.474,128.79z M292.704,92.264c2.411-2.094,4.029-4.811,4.852-8.137l7.108-33.171
		c0-0.46-0.098-0.983-0.304-1.577c-0.203-0.588-0.487-1.139-0.853-1.643c-1.098-1.318-2.625-1.981-4.585-1.981
		c-1.869,0-3.686,0.618-5.439,1.847c-1.75,1.232-3.409,2.941-4.958,5.131c-2.734,3.97-4.995,9.143-6.769,15.525
		c-0.82,2.83-1.441,5.62-1.851,8.379c-0.408,2.762-0.611,5.256-0.611,7.49c0,4.648,0.86,7.801,2.596,9.439
		c0.593,0.637,1.255,1.049,1.983,1.234c0.729,0.178,1.549,0.268,2.467,0.268C288.346,95.069,290.466,94.139,292.704,92.264z"/>
	<path fill="#59C3E6" d="M335.787,103.278c-4.242-3.738-6.357-9.414-6.357-17.031c0-2.873,0.296-6.053,0.889-9.539
		c0.596-3.491,1.504-7.017,2.732-10.569c2.835-8.479,6.869-15.254,12.108-20.316c6.339-6.2,13.885-9.3,22.641-9.3
		c11.994,0,17.988,7.454,17.988,22.366v0.135c0.272,0.096,0.502,0.139,0.684,0.139h0.817c3.107,0,6.776-0.865,11.015-2.602
		c3.738-1.549,7.275-3.488,10.603-5.809l1.233,3.828c-2.739,2.87-6.258,5.312-10.564,7.316c-4.313,2.011-9.064,3.447-14.266,4.311
		c-0.545,6.34-1.782,12.116-3.694,17.336c-1.915,5.223-4.374,9.705-7.386,13.439c-2.964,3.656-6.363,6.457-10.192,8.416
		c-3.831,1.959-7.888,2.938-12.176,2.938C344.929,108.336,339.576,106.655,335.787,103.278z M362.498,93.532
		c1.711-1.48,3.322-3.543,4.823-6.189c1.506-2.643,2.807-5.748,3.896-9.303c1.095-3.559,1.917-7.364,2.464-11.422
		c-1.369-0.369-2.335-1.05-2.906-2.053c-0.566-0.999-0.858-2.281-0.858-3.829c0-1.915,0.388-3.51,1.167-4.788
		c0.774-1.277,1.847-2.213,3.214-2.806c-0.182-2.964-0.661-5.083-1.436-6.36c-0.411-0.637-0.926-1.098-1.54-1.368
		c-0.621-0.272-1.405-0.41-2.358-0.41c-3.144,0-6.227,2.371-9.233,7.114c-2.782,4.291-5.063,9.578-6.841,15.867
		c-1.735,6.159-2.599,11.627-2.599,16.415c0,2.324,0.127,4.217,0.373,5.68c0.251,1.465,0.674,2.6,1.267,3.42
		c0.553,0.822,1.255,1.398,2.123,1.742c0.865,0.344,2.005,0.516,3.42,0.516C359.113,95.756,360.791,95.012,362.498,93.532z"/>
</g>
<path fill="#59C3E6" stroke="#59C3E6" stroke-width="4" d="M71.027,99.94c0,2.914-2.361,5.277-5.276,5.277H9.616
	c-2.914,0-5.277-2.363-5.277-5.277V80.813c0-2.912,2.363-5.275,5.277-5.275H65.75c2.915,0,5.276,2.363,5.276,5.275V99.94z"/>
<path fill="none" stroke="#59C3E6" stroke-width="4" d="M147.323,99.94c0,2.914-2.362,5.277-5.276,5.277H85.911
	c-2.915,0-5.275-2.363-5.275-5.277V80.813c0-2.912,2.36-5.275,5.275-5.275h56.136c2.914,0,5.276,2.363,5.276,5.275V99.94z"/>
<path fill="none" stroke="#59C3E6" stroke-width="4" d="M94.869,62.175c0,2.914-2.362,5.276-5.275,5.276H33.458
	c-2.914,0-5.276-2.362-5.276-5.276V43.048c0-2.914,2.362-5.276,5.276-5.276h56.136c2.913,0,5.275,2.362,5.275,5.276V62.175z"/>
</svg>
