<?xml version="1.0" encoding="utf-8"?>
<!-- Generator: Adobe Illustrator 14.0.0, SVG Export Plug-In . SVG Version: 6.00 Build 43363)  -->
<!DOCTYPE svg PUBLIC "-//W3C//DTD SVG 1.1//EN" "http://www.w3.org/Graphics/SVG/1.1/DTD/svg11.dtd">
<svg version="1.1" id="Calque_1" xmlns="http://www.w3.org/2000/svg" xmlns:xlink="http://www.w3.org/1999/xlink" x="0px" y="0px"
	 width="415px" height="153.333px" viewBox="0 0 415 153.333" enable-background="new 0 0 415 153.333" xml:space="preserve">
<g>
	<path fill="#59C3E6" d="M222.403,144.178c-3.147-1.439-6.547-3.479-10.194-6.123c-3.327-2.326-6.635-4.881-9.917-7.658
		c-7.706-6.387-14.754-10.896-21.134-13.547c-3.695-1.553-7.661-2.322-11.901-2.322h-1.574c-0.271,0-0.82,0.047-1.641,0.137
		l20.859-97.059c-6.288,2.597-11.124,6.464-14.499,11.594c-3.377,5.13-5.058,11.431-5.058,18.913c0,2.871,0.312,5.223,0.956,7.047
		c0.177,0.592,0.409,1.119,0.684,1.569c0.177,0.32,0.272,0.642,0.272,0.957c-5.06,0-8.755-1.025-11.085-3.076
		c-2.592-2.19-3.896-5.7-3.896-10.534c0-3.054,0.664-6.074,1.988-9.063c1.315-2.982,3.185-5.869,5.603-8.649
		c2.331-2.689,5.072-5.189,8.247-7.493c3.169-2.301,6.573-4.3,10.225-5.984c7.752-3.511,15.455-5.267,23.116-5.267
		c1.685,0,3.559,0.116,5.609,0.343l-21.545,100.542c2.234,0.508,4.503,1.256,6.803,2.262c2.304,1,4.938,2.301,7.901,3.898
		l7.661,4.102c5.925,3.242,11.289,5.471,16.071,6.707c2.737,0.729,5.615,1.092,8.619,1.092c4.245,0,8.163-0.754,11.765-2.26
		c-0.819,6.84-2.488,12.197-4.993,16.074c-1.229,1.914-2.657,3.385-4.273,4.412c-1.62,1.025-3.385,1.537-5.299,1.537
		C228.667,146.329,225.543,145.614,222.403,144.178z"/>
	<path fill="#59C3E6" d="M210.636,106.932c-3.968-3.691-5.952-9.365-5.952-17.027c0-2.871,0.287-6.061,0.856-9.578
		c0.571-3.512,1.424-7.021,2.566-10.533c1.268-3.922,2.902-7.635,4.891-11.146c1.981-3.512,4.298-6.612,6.943-9.307
		c6.112-6.2,13.627-9.3,22.571-9.3c5.698,0,9.843,1.365,12.445,4.103c2.011,2.146,3.01,5.243,3.01,9.302
		c0,3.967-0.865,7.696-2.596,11.187c-1.738,3.483-4.133,6.575-7.186,9.267c-3.055,2.644-6.521,4.752-10.397,6.329
		c-3.872,1.566-7.893,2.494-12.037,2.766c-0.231,2.367-0.342,4.242-0.342,5.611c0,4.557,0.863,7.707,2.599,9.438
		c1.506,1.553,4.011,2.326,7.529,2.326c5.055,0,9.685-1.369,13.877-4.104c1.783-1.137,3.492-2.5,5.137-4.068
		c1.638-1.578,3.55-3.564,5.741-5.984h4.788c-4.427,7.479-9.506,13.428-15.25,17.85c-7.075,5.383-14.821,8.066-23.254,8.066
		C219.69,112.127,214.372,110.403,210.636,106.932z M234.438,74.034c2.462-1.324,4.651-3.052,6.568-5.198
		c1.917-2.187,3.418-4.638,4.513-7.354c1.095-2.711,1.645-5.48,1.645-8.311c0-1.867-0.266-3.288-0.789-4.273
		c-0.523-0.98-1.425-1.471-2.701-1.471c-1.685,0-3.384,0.82-5.096,2.465c-1.711,1.639-3.365,3.898-4.962,6.769
		c-1.458,2.695-2.777,5.747-3.963,9.168c-1.19,3.421-2.123,6.905-2.807,10.464C229.447,76.109,231.976,75.361,234.438,74.034z"/>
	<path fill="#59C3E6" d="M278.934,145.477c-1.896-0.57-3.523-1.428-4.891-2.566c-1.463-1.139-2.601-2.563-3.423-4.271
		c-0.822-1.715-1.233-3.682-1.233-5.92c0-5.289,2.486-9.83,7.458-13.609c3.738-2.785,8.867-5.197,15.391-7.254l1.709-7.385
		c-4.79,5.107-10.397,7.656-16.827,7.656c-5.335,0-9.643-1.66-12.927-4.988c-3.829-3.918-5.741-9.756-5.741-17.512
		c0-3.283,0.325-6.74,0.987-10.396c0.662-3.646,1.633-7.248,2.906-10.808c2.919-8.023,6.91-14.5,11.976-19.424
		c5.834-5.609,12.558-8.415,20.176-8.415c3.783,0,6.618,0.655,8.514,1.955c1.889,1.298,2.837,3.018,2.837,5.16v0.822l1.509-7.253
		h20.173l-13.88,64.982c4.42-1.461,7.957-3.648,10.596-6.566c2.873-3.15,5.226-7.635,7.049-13.473h5.878
		c-2.505,8.295-6.243,14.697-11.215,19.219c-3.652,3.283-8.163,5.607-13.543,6.971l-2.118,10.129
		c-1.78,8.936-5.337,15.41-10.667,19.424c-3.882,2.912-8.734,4.375-14.573,4.375C282.864,146.329,280.823,146.043,278.934,145.477z
		 M286.353,132.309c1.549-2.002,2.759-5.129,3.626-9.371l0.822-4.035c-4.242,1.598-7.417,3.213-9.511,4.857
		c-2.782,2.096-4.173,4.443-4.173,7.043c0,1.232,0.387,2.258,1.164,3.078c0.862,1.004,2.053,1.506,3.559,1.506
		C283.298,135.387,284.804,134.362,286.353,132.309z M292.583,95.784c2.411-2.094,4.029-4.811,4.852-8.137l7.108-33.172
		c0-0.46-0.098-0.983-0.304-1.577c-0.203-0.588-0.487-1.139-0.853-1.643c-1.098-1.318-2.625-1.981-4.585-1.981
		c-1.869,0-3.686,0.618-5.439,1.847c-1.75,1.232-3.409,2.941-4.958,5.131c-2.734,3.97-4.995,9.143-6.769,15.525
		c-0.82,2.83-1.441,5.62-1.851,8.38c-0.408,2.762-0.611,5.256-0.611,7.49c0,4.648,0.86,7.799,2.596,9.439
		c0.593,0.635,1.255,1.049,1.983,1.232c0.729,0.18,1.549,0.268,2.467,0.268C288.225,98.586,290.345,97.659,292.583,95.784z"/>
	<path fill="#59C3E6" d="M335.666,106.797c-4.242-3.738-6.357-9.414-6.357-17.031c0-2.875,0.296-6.053,0.889-9.539
		c0.596-3.492,1.504-7.018,2.732-10.57c2.835-8.479,6.869-15.254,12.108-20.316c6.339-6.2,13.885-9.3,22.641-9.3
		c11.994,0,17.988,7.454,17.988,22.366v0.135c0.272,0.096,0.502,0.139,0.684,0.139h0.817c3.107,0,6.776-0.865,11.015-2.602
		c3.738-1.549,7.275-3.488,10.603-5.809l1.233,3.828c-2.739,2.87-6.258,5.312-10.564,7.316c-4.313,2.011-9.064,3.447-14.266,4.311
		c-0.545,6.34-1.782,12.117-3.694,17.337c-1.915,5.221-4.374,9.703-7.386,13.439c-2.964,3.654-6.363,6.457-10.192,8.416
		c-3.831,1.959-7.888,2.938-12.176,2.938C344.808,111.856,339.455,110.174,335.666,106.797z M362.376,97.051
		c1.711-1.48,3.322-3.545,4.823-6.189c1.506-2.643,2.807-5.748,3.896-9.303c1.095-3.559,1.917-7.365,2.464-11.423
		c-1.369-0.369-2.335-1.05-2.906-2.053c-0.566-0.999-0.858-2.281-0.858-3.829c0-1.915,0.388-3.51,1.167-4.788
		c0.774-1.277,1.847-2.213,3.214-2.806c-0.182-2.964-0.661-5.083-1.436-6.36c-0.411-0.637-0.926-1.098-1.54-1.368
		c-0.621-0.272-1.405-0.41-2.358-0.41c-3.144,0-6.227,2.371-9.233,7.114c-2.782,4.291-5.063,9.578-6.841,15.867
		c-1.735,6.159-2.599,11.628-2.599,16.414c0,2.326,0.127,4.219,0.373,5.682c0.251,1.463,0.674,2.6,1.267,3.42
		c0.553,0.82,1.255,1.398,2.123,1.742c0.865,0.344,2.005,0.514,3.42,0.514C358.992,99.274,360.669,98.532,362.376,97.051z"/>
</g>
<path fill="#59C3E6" stroke="#59C3E6" stroke-width="4" d="M73.173,104.616c0,2.828-2.289,5.121-5.118,5.121H13.589
	c-2.827,0-5.119-2.293-5.119-5.121V86.058c0-2.827,2.292-5.118,5.119-5.118h54.466c2.829,0,5.118,2.291,5.118,5.118V104.616z"/>
<path fill="none" stroke="#59C3E6" stroke-width="4" d="M147.202,104.616c0,2.828-2.293,5.121-5.119,5.121H87.616
	c-2.829,0-5.119-2.293-5.119-5.121V86.058c0-2.827,2.29-5.118,5.119-5.118h54.467c2.826,0,5.119,2.291,5.119,5.118V104.616z"/>
<path fill="none" stroke="#59C3E6" stroke-width="4" d="M100.189,67.003c0,2.827-2.292,5.119-5.119,5.119H40.604
	c-2.828,0-5.119-2.292-5.119-5.119V48.445c0-2.828,2.291-5.12,5.119-5.12H95.07c2.827,0,5.119,2.292,5.119,5.12V67.003z"/>
</svg>
